<svg width="1551" height="1551" viewBox="0 0 1551 1551" fill="none" xmlns="http://www.w3.org/2000/svg">
<path d="M1172.12 0.545898H378.012C169.277 0.545898 0.0644531 169.759 0.0644531 378.493V1172.6C0.0644531 1381.33 169.277 1550.55 378.012 1550.55H1172.12C1380.85 1550.55 1550.06 1381.33 1550.06 1172.6V378.493C1550.06 169.759 1380.85 0.545898 1172.12 0.545898Z" fill="white"/>
<path d="M702.832 516.878L702.557 682.254C702.537 691.366 695.139 698.745 686.027 698.725L504.289 698.439L484.114 698.42C483.277 698.341 482.44 698.341 481.622 698.42C474.096 698.991 467.713 704.744 466.668 712.556C466.097 716.791 467.2 720.86 469.476 724.111L443.814 698.351L404.618 659.006L404.431 658.839C401.091 655.874 397.949 652.722 395.023 649.382C374.356 626.036 363.579 594.198 368.081 560.872C370.908 539.9 379.439 521.075 391.871 505.757C393.506 503.728 395.21 501.787 396.984 499.886L559.601 500.132L686.362 500.329C695.474 500.339 702.852 507.747 702.842 516.859L702.832 516.878Z" fill="url(#paint0_linear_2167_75480)"/>
<path d="M847.316 1034.22L847.591 868.848C847.611 859.736 855.009 852.358 864.121 852.378L1045.86 852.664L1066.03 852.683C1066.87 852.762 1067.71 852.762 1068.53 852.683C1076.05 852.112 1082.44 846.359 1083.48 838.547C1084.05 834.311 1082.95 830.243 1080.67 826.992L1106.33 852.752L1145.53 892.096L1145.72 892.264C1149.06 895.229 1152.2 898.381 1155.12 901.721C1175.79 925.067 1186.57 956.905 1182.07 990.231C1179.24 1011.2 1170.71 1030.03 1158.28 1045.35C1156.64 1047.38 1154.94 1049.32 1153.16 1051.22L990.547 1050.97L863.786 1050.77C854.674 1050.76 847.296 1043.36 847.306 1034.24L847.316 1034.22Z" fill="url(#paint1_linear_2167_75480)"/>
<path d="M235.077 772.931C218.951 756.766 206.066 737.537 198.097 716.141C195.9 710.23 194.038 704.172 192.541 697.986C187.96 679.161 186.768 659.173 189.517 638.812C196.373 587.952 226.388 545.879 267.486 521.803C267.565 521.764 267.634 521.724 267.713 521.685C290.961 508.101 317.735 500.26 345.889 499.836L351.662 499.856L397.005 499.915C395.222 501.816 393.528 503.757 391.892 505.786C379.451 521.114 370.92 539.929 368.103 560.901C363.601 594.227 374.387 626.065 395.045 649.411C397.97 652.751 401.123 655.893 404.452 658.868L404.639 659.035L443.836 698.38L469.497 724.14C471.93 726.573 476.442 731.084 476.442 731.084L486.845 741.536L702.145 957.535L824.64 1080.41C829.772 1085.57 832.658 1092.55 832.639 1099.83L832.254 1288.63L832.235 1332.76C832.235 1347.1 814.887 1354.27 804.761 1344.13L760.974 1300.31L701.711 1240.78L244.8 782.683L235.106 772.97L235.077 772.931Z" fill="url(#paint2_linear_2167_75480)"/>
<path d="M1315.06 778.172C1331.19 794.337 1344.07 813.566 1352.04 834.962C1354.24 840.872 1356.1 846.93 1357.6 853.117C1362.18 871.942 1363.37 891.929 1360.62 912.291C1353.77 963.151 1323.75 1005.22 1282.65 1029.3C1282.57 1029.34 1282.51 1029.38 1282.43 1029.42C1259.18 1043 1232.4 1050.84 1204.25 1051.27L1198.48 1051.25L1153.13 1051.19C1154.92 1049.29 1156.61 1047.35 1158.25 1045.32C1170.69 1029.99 1179.22 1011.17 1182.04 990.201C1186.54 956.876 1175.75 925.038 1155.1 901.691C1152.17 898.352 1149.02 895.209 1145.69 892.234L1145.5 892.067L1106.3 852.723L1080.64 826.963C1078.21 824.53 1073.7 820.018 1073.7 820.018L1063.3 809.566L847.995 593.567L725.5 470.688C720.368 465.536 717.481 458.551 717.501 451.271L717.885 262.47L717.905 218.339C717.905 204.006 735.252 196.834 745.379 206.971L789.166 250.797L848.429 310.326L1305.34 768.419L1315.03 778.132L1315.06 778.172Z" fill="url(#paint3_linear_2167_75480)"/>
<defs>
<linearGradient id="paint0_linear_2167_75480" x1="785.905" y1="612.018" x2="288.723" y2="612.018" gradientUnits="userSpaceOnUse">
<stop stop-color="#D987F7"/>
<stop offset="1" stop-color="#4819AA"/>
</linearGradient>
<linearGradient id="paint1_linear_2167_75480" x1="764.243" y1="939.085" x2="1261.43" y2="939.085" gradientUnits="userSpaceOnUse">
<stop stop-color="#D987F7"/>
<stop offset="1" stop-color="#4819AA"/>
</linearGradient>
<linearGradient id="paint2_linear_2167_75480" x1="188.049" y1="924.338" x2="832.629" y2="924.338" gradientUnits="userSpaceOnUse">
<stop stop-color="#CC72FC"/>
<stop offset="1" stop-color="#6E1FFF"/>
</linearGradient>
<linearGradient id="paint3_linear_2167_75480" x1="1362.09" y1="626.764" x2="717.521" y2="626.764" gradientUnits="userSpaceOnUse">
<stop stop-color="#CC72FC"/>
<stop offset="1" stop-color="#6E1FFF"/>
</linearGradient>
</defs>
</svg>
